<svg id="Layer_1" data-name="Layer 1" xmlns="http://www.w3.org/2000/svg" viewBox="0 0 150.05 35.8"><defs><style>.sheetz_icon_1{fill:#dd132c}.sheetz_icon_2{fill:#fff}</style></defs><title>logo_sheetz</title><path id="Path_502" data-name="Path 502" class="sheetz_icon_1" d="M75.09 32.4c-38.78 0-64.2-3.26-71.07-4.26L3.23 28l.15-.78a53.06 53.06 0 0 0 1-9.4 52.09 52.09 0 0 0-1-9.33l-.15-.79.77-.08c7-1 32.73-4.13 71.06-4.2 38 0 63.9 3.17 70.95 4.14l.79.1-.14.79a48.94 48.94 0 0 0 0 18.8l.14.77-.78.11c-6.86 1.01-32.3 4.27-70.93 4.27zm-22.68-8v-13h-1.73v5.88h-11v-5.97H38v5.88h-1c-1.17 0-2.42-.08-3-.12v1.58c.74-.05 2.05-.12 3.21-.12H38v5.82h1.72v-5.82h11v5.83zm-37.16-.6a33.85 33.85 0 0 0 6.81.56 33.4 33.4 0 0 0 6.77-.56v-6.6H16.94v-4.27l.69-.07a43 43 0 0 1 4.4-.19 39.63 39.63 0 0 1 6.79.56V11.9a36 36 0 0 0-6.8-.58 33.7 33.7 0 0 0-6.8.57v6.65h11.87v4.25l-.7.06C25.25 23 23.78 23 22 23h-.21a37.35 37.35 0 0 1-6.59-.56zm106.21-.1a38.83 38.83 0 0 0 7 .6h.07a41.75 41.75 0 0 0 6.6-.61v-1.3a41.5 41.5 0 0 1-6.58.61h-.08c-1.22 0-2.43-.05-3.6-.15l-2-.17 12.28-9.14v-1.86a38.94 38.94 0 0 0-7-.6h-.07a43 43 0 0 0-6.6.61V13a42.59 42.59 0 0 1 6.58-.6h.09c1.26 0 2.48.06 3.6.15l2 .18-12.27 9.13zm-11.24.6V12.6h.78a34.26 34.26 0 0 1 5.34.53v-1.32a33.39 33.39 0 0 0-6.91-.54 34.6 34.6 0 0 0-6.9.53v1.33a32.25 32.25 0 0 1 5.19-.51h.78V24.3zm-26.4-.57a34.77 34.77 0 0 0 6.75.57 33.48 33.48 0 0 0 6.85-.57V22.4a34.45 34.45 0 0 1-6.87.56c-1.62 0-3.07-.06-4.3-.18l-.69-.07v-4.23h4.69c2.08 0 3.54 0 4.49.09v-1.52c-1.1.09-2.7.13-5 .13h-4.18v-4.3l.69-.06c.88-.09 2.36-.19 4.45-.19a36 36 0 0 1 6.8.52v-1.3a30.81 30.81 0 0 0-6.78-.58 34.72 34.72 0 0 0-6.9.6v5.3H80v1.3h3.88zm-22.62 0a33.84 33.84 0 0 0 6.74.57 33.42 33.42 0 0 0 6.85-.57V22.4a34.33 34.33 0 0 1-6.87.56c-1.61 0-3.06-.06-4.3-.18l-.69-.07v-4.23h4.69c2.09 0 3.54 0 4.49.09v-1.52c-1.1.09-2.7.14-5 .14h-4.18v-4.31l.69-.07c.88-.09 2.37-.19 4.46-.19a36.1 36.1 0 0 1 6.8.51v-1.28a30.92 30.92 0 0 0-6.78-.58 34.65 34.65 0 0 0-6.9.6v5.3h-3.86v1.3h3.87z"/><path id="Path_503" data-name="Path 503" class="sheetz_icon_2" d="M75.09 4.19c38.46 0 64.85 3.3 70.85 4.13a49.54 49.54 0 0 0 0 19.07c-5.87.85-31.7 4.25-70.84 4.25s-65.07-3.4-71-4.25a53.69 53.69 0 0 0 1-9.54 52.82 52.82 0 0 0-1-9.47c6-.83 32.19-4.12 71-4.19m45.6 9.72a41.16 41.16 0 0 1 7.34-.75h.09c1.34 0 2.52.06 3.54.14l-11 8.16v2.86a36 36 0 0 0 7.74.75h.07a43.31 43.31 0 0 0 7.36-.74v-2.85a42.13 42.13 0 0 1-7.35.76h-.07c-1.34 0-2.53-.07-3.55-.15l11-8.17v-2.85a35.81 35.81 0 0 0-7.73-.75h-.07a43.43 43.43 0 0 0-7.37.74v2.85m-18.94.24l.44-.15a25.21 25.21 0 0 1 5.54-.61v11.67H111V13.38a31.07 31.07 0 0 1 5.69.62l.42.14v-2.93a31.36 31.36 0 0 0-7.67-.7 31.36 31.36 0 0 0-7.67.7v2.94M79.2 19.24h3.87v5.1a30.53 30.53 0 0 0 7.51.72 28.71 28.71 0 0 0 7.61-.73v-2.9l-.5.13a29.49 29.49 0 0 1-7.14.64c-1.94 0-3.33-.09-4.22-.17v-2.78h3.92c1.91 0 3.85 0 4.91.13h.34v-3.13H95c-1.34.13-3.35.16-5.22.16h-3.45v-2.84c.91-.09 2.36-.18 4.38-.18a30.62 30.62 0 0 1 7.08.59l.43.12h.05v-2.85a28.53 28.53 0 0 0-7.54-.74 31.38 31.38 0 0 0-7.66.76v5.14H79.2v2.83m-22.62 0h3.87v5.1a30.06 30.06 0 0 0 7.51.73 29.13 29.13 0 0 0 7.61-.73v-2.9l-.5.13a29.49 29.49 0 0 1-7.14.64c-1.94 0-3.33-.09-4.22-.18v-2.78h3.92c1.91 0 3.85 0 4.91.13h.34v-3.13h-.5c-1.34.13-3.35.15-5.22.15H63.7v-2.83c.91-.09 2.36-.19 4.38-.19a30.08 30.08 0 0 1 7.08.6l.43.12v-2.85a28.53 28.53 0 0 0-7.54-.74 31.38 31.38 0 0 0-7.66.76v5.14h-3.81v2.83m-16.1-2.8v-5.89h-3.26v5.89H37c-1.41 0-3-.12-3.31-.14l-.46-.05v3.23h.36c.38 0 2.13-.14 3.61-.14v5.81h3.26v-5.86h9.43v5.83h3.26V10.55h-3.24v5.88h-9.43m-26 2.87h11.85v2.79c-.85.07-2.21.15-4.29.16h-.2a32.88 32.88 0 0 1-6.93-.65l-.42-.11v2.9l.24.06a30.1 30.1 0 0 0 7.33.66 29.94 29.94 0 0 0 7.31-.66l.21-.06v-8H17.7V13.6c1.44-.13 2.88-.19 4.33-.18a34.77 34.77 0 0 1 7.55.73v-2.88a32.54 32.54 0 0 0-7.58-.73 31.46 31.46 0 0 0-7.31.68l-.26.06v8M75.09 2.65c-38.37.07-64.17 3.24-71.16 4.21l-1.59.22.3 1.57a51.53 51.53 0 0 1 .95 9.19 52.21 52.21 0 0 1-1 9.25l-.3 1.57 1.58.22c6.88 1 32.35 4.27 71.18 4.27s64.17-3.26 71.06-4.27l1.55-.22-.27-1.55a48 48 0 0 1 0-18.54l.33-1.57-1.58-.21c-7.06-1-33-4.15-71-4.15z"/></svg>